# xmcd
# Copyright (C) 1995-1998 Ti Kan
#
# Track frame offsets:
#       150
#       18222
#       34160
#       51867
#       72579
#       93074
#       116707
#       140526
#       162234
#
# Disc length: 2763 seconds
#
# Revision: 0
# Processed by: cddbd v1.5.2PL0 Copyright (c) Steve Scherf et al.
# Submitted via: CD-Import v1.0
#
DISCID=750ac909
DTITLE=Monpetitponey - Clap Clap
DYEAR=08
DGENRE=
TTITLE0=Youpi
TTITLE1=Clap Clap
TTITLE2=The Next You
TTITLE3=Clitofuck
TTITLE4=Mister P.
TTITLE5=Usdrick
TTITLE6=Lala La
TTITLE7=Doom Doom
TTITLE8=Virgule
EXTD=
EXTT0=
EXTT1=
EXTT2=
EXTT3=
EXTT4=
EXTT5=
EXTT6=
EXTT7=
EXTT8=
PLAYORDER=
